<svg version="1.1" xmlns="http://www.w3.org/2000/svg" viewBox="0 0 535 362" width="535" height="362">
  <!-- svg-source:excalidraw -->
  
  <defs>
    <style class="style-fonts">
      @font-face {
        font-family: "Virgil";
        src: url("https://excalidraw.com/Virgil.woff2");
      }
      @font-face {
        font-family: "Cascadia";
        src: url("https://excalidraw.com/Cascadia.woff2");
      }
      @font-face {
        font-family: "Assistant";
        src: url("https://excalidraw.com/Assistant-Regular.woff2");
      }
    </style>
    
  </defs>
  <rect x="0" y="0" width="535" height="362" fill="#ffffff"></rect><g stroke-linecap="round" transform="translate(191.5 10) rotate(0 78.5 55)"><path d="M3.59 11.07 C3.59 11.07, 3.59 11.07, 3.59 11.07 M3.59 11.07 C3.59 11.07, 3.59 11.07, 3.59 11.07 M1.09 26.13 C4.61 22.75, 9.92 16.22, 23.4 0.47 M1.09 26.13 C5.79 20.93, 11.45 15, 23.4 0.47 M1.23 38.17 C14.86 24.53, 25.57 7.94, 34.03 0.43 M1.23 38.17 C8.08 29.8, 14.06 22.15, 34.03 0.43 M1.36 50.21 C10.3 37.49, 23.86 26.86, 44.66 0.4 M1.36 50.21 C13.56 36.65, 25.27 22.97, 44.66 0.4 M0.84 63 C19.54 42.82, 39.09 19.54, 55.29 0.36 M0.84 63 C18.47 42.06, 36.35 23.91, 55.29 0.36 M0.97 75.04 C18.98 53.51, 38.46 34.83, 65.92 0.33 M0.97 75.04 C15.23 58.59, 29.84 42.37, 65.92 0.33 M1.1 87.09 C24.88 56.79, 51.17 30.85, 76.55 0.29 M1.1 87.09 C27.1 55.02, 53.27 25.59, 76.55 0.29 M3.21 96.86 C31.29 66.19, 56.22 33.9, 87.18 0.26 M3.21 96.86 C35.37 61.21, 66.33 23.99, 87.18 0.26 M7.93 103.62 C29.48 76.76, 51.39 51.23, 97.81 0.22 M7.93 103.62 C40.38 66.66, 71.22 29.33, 97.81 0.22 M14.62 108.11 C46.33 71.01, 80.43 32.82, 108.44 0.19 M14.62 108.11 C43.22 76.27, 71.31 43.59, 108.44 0.19 M23.94 109.59 C57.68 69.95, 92.13 28.68, 119.07 0.16 M23.94 109.59 C53.5 74.18, 83.98 40.05, 119.07 0.16 M33.92 110.31 C52.86 86.03, 73.39 62.79, 129.7 0.12 M33.92 110.31 C68.6 70.51, 102.24 31.23, 129.7 0.12 M44.55 110.27 C80.97 71.55, 114.32 29.59, 139.02 1.6 M44.55 110.27 C78.55 71.79, 112.75 32.49, 139.02 1.6 M55.18 110.24 C78.35 82.42, 100.03 56.72, 147.02 4.58 M55.18 110.24 C91.26 69.34, 124.81 30.32, 147.02 4.58 M65.81 110.21 C94.58 78.17, 123.69 43.51, 152.41 10.58 M65.81 110.21 C97.11 73.58, 129.47 37.91, 152.41 10.58 M76.44 110.17 C105.18 76.86, 131.7 45.15, 155.82 18.85 M76.44 110.17 C97.48 86.15, 120.21 60.7, 155.82 18.85 M87.07 110.14 C113.55 80.51, 139.58 48.29, 157.27 29.38 M87.07 110.14 C113.39 77.8, 141.41 46.93, 157.27 29.38 M97.7 110.1 C115.02 92.89, 130.45 74.43, 157.4 41.42 M97.7 110.1 C117.67 86.1, 137.46 64.47, 157.4 41.42 M108.33 110.07 C127.49 90.21, 143.29 69.52, 156.88 54.22 M108.33 110.07 C125.1 89.6, 144.22 68.55, 156.88 54.22 M118.96 110.03 C130.42 99.29, 141.86 87.37, 157.01 66.26 M118.96 110.03 C132.59 94.11, 145.23 79.04, 157.01 66.26 M129.59 110 C136.88 102.35, 142.81 94.91, 157.14 78.3 M129.59 110 C137.2 102.1, 143.54 92.71, 157.14 78.3 M141.53 108.45 C145.58 101.86, 152.56 94.72, 156.62 91.1 M141.53 108.45 C146.19 102.72, 151.29 96.4, 156.62 91.1" stroke="#ffec99" stroke-width="1" fill="none"></path><path d="M27.5 0 C53.61 -0.55, 81.14 -0.73, 129.5 0 M27.5 0 C56.26 -1.44, 84.74 -0.2, 129.5 0 M129.5 0 C146.38 1.76, 158.09 11, 157 27.5 M129.5 0 C149.49 0.92, 156.39 11.02, 157 27.5 M157 27.5 C155.93 38.15, 157.34 50.22, 157 82.5 M157 27.5 C156.73 46.21, 157.63 64.89, 157 82.5 M157 82.5 C158.17 102.12, 147.29 111.59, 129.5 110 M157 82.5 C158.63 102.87, 149.63 108.79, 129.5 110 M129.5 110 C93.57 108.19, 55.39 110.08, 27.5 110 M129.5 110 C108.69 110.25, 85.53 110.44, 27.5 110 M27.5 110 C10.69 111.54, -1.63 102.12, 0 82.5 M27.5 110 C8.56 107.84, -1.04 101.07, 0 82.5 M0 82.5 C1.9 62.64, -1.43 41.42, 0 27.5 M0 82.5 C0.34 70.35, 0.33 58.64, 0 27.5 M0 27.5 C1.51 7.73, 8.63 -0.46, 27.5 0 M0 27.5 C1.54 9.94, 7.21 -2.27, 27.5 0" stroke="#1e1e1e" stroke-width="2" fill="none"></path></g><g transform="translate(231.5 50) rotate(0 33.43333435058594 12.5)"><text x="0" y="17.52" font-family="Virgil, Segoe UI Emoji" font-size="20px" fill="#1e1e1e" text-anchor="start" style="white-space: pre;" direction="ltr" dominant-baseline="alphabetic">common</text></g><g stroke-linecap="round" transform="translate(10 242) rotate(0 78.5 55)"><path d="M3.59 11.07 C3.59 11.07, 3.59 11.07, 3.59 11.07 M3.59 11.07 C3.59 11.07, 3.59 11.07, 3.59 11.07 M3.06 23.86 C10.55 18.92, 14.6 8.6, 19.46 4.99 M3.06 23.86 C8.33 17.99, 13.3 11.72, 19.46 4.99 M3.2 35.9 C14.27 23.26, 23.11 12.02, 31.41 3.45 M3.2 35.9 C9.92 27.76, 18.99 19.84, 31.41 3.45 M3.33 47.94 C12.3 36.45, 25.07 25.67, 42.04 3.42 M3.33 47.94 C18.28 32.25, 32.81 14.73, 42.04 3.42 M3.46 59.98 C17.87 45.93, 29.44 28.09, 52.67 3.38 M3.46 59.98 C21.59 40.6, 37.17 22.23, 52.67 3.38 M3.59 72.03 C24.36 47.05, 43.25 23.12, 63.3 3.35 M3.59 72.03 C20.51 51.58, 36.85 33.12, 63.3 3.35 M3.07 84.82 C19.43 66.19, 38.13 42.97, 73.93 3.31 M3.07 84.82 C23.59 62.05, 45.8 37.47, 73.93 3.31 M5.83 93.84 C27.78 69.9, 45.88 47.26, 84.56 3.28 M5.83 93.84 C34.93 59.44, 65.42 25.63, 84.56 3.28 M7.93 103.62 C37.67 68.44, 71.25 33.15, 95.19 3.24 M7.93 103.62 C27.9 83.85, 45.54 62.49, 95.19 3.24 M14.62 108.11 C43.98 75.62, 72.33 44.78, 105.82 3.21 M14.62 108.11 C41.61 79.3, 67.56 48.43, 105.82 3.21 M20.66 113.36 C53.33 78.69, 82.89 38.89, 116.45 3.17 M20.66 113.36 C41.96 87.42, 65.21 61.16, 116.45 3.17 M31.29 113.33 C63.89 73.71, 101.27 35.06, 129.7 0.12 M31.29 113.33 C70.47 69.01, 110.53 22.77, 129.7 0.12 M41.92 113.29 C62.68 85.85, 88.54 62.02, 139.02 1.6 M41.92 113.29 C74.87 73.34, 108.67 34.89, 139.02 1.6 M52.55 113.26 C79.69 84.01, 103.9 53.57, 146.37 5.34 M52.55 113.26 C77.02 85.94, 99.37 59.13, 146.37 5.34 M63.18 113.22 C83.54 90.28, 104.27 66.67, 153.06 9.83 M63.18 113.22 C98.42 71.67, 132.49 31.36, 153.06 9.83 M73.81 113.19 C103.56 77.56, 136.2 43.75, 157.13 17.34 M73.81 113.19 C102.5 82.3, 129.39 50.14, 157.13 17.34 M84.44 113.16 C110 81.7, 139.17 51.7, 157.92 28.63 M84.44 113.16 C101.19 92.4, 120.4 72.48, 157.92 28.63 M95.07 113.12 C113.23 91.58, 136.14 67.48, 158.05 40.67 M95.07 113.12 C111.3 94.71, 127.85 76.5, 158.05 40.67 M105.7 113.09 C118.8 98.86, 129.19 85.8, 158.19 52.71 M105.7 113.09 C117.28 100.69, 129.43 85.63, 158.19 52.71 M116.33 113.05 C126.47 102.3, 135.77 92.92, 157.66 65.51 M116.33 113.05 C125.85 102.4, 133.92 91.61, 157.66 65.51 M129.59 110 C135.12 99.89, 144.66 93.52, 157.8 77.55 M129.59 110 C138.54 100.08, 148.47 88.36, 157.8 77.55 M141.53 108.45 C147.62 102.14, 153.1 94.07, 157.93 89.59 M141.53 108.45 C147.06 102.14, 153.5 95.02, 157.93 89.59" stroke="#a5d8ff" stroke-width="1" fill="none"></path><path d="M27.5 0 C53.72 -1.08, 78.57 -0.56, 129.5 0 M27.5 0 C50.78 0.8, 73.1 0.54, 129.5 0 M129.5 0 C145.97 1.41, 155.68 9.7, 157 27.5 M129.5 0 C148.66 2.05, 155.94 9.25, 157 27.5 M157 27.5 C155.21 48.47, 156.29 66.92, 157 82.5 M157 27.5 C157.03 41.6, 156.12 56.35, 157 82.5 M157 82.5 C158.67 101.09, 146.97 111.98, 129.5 110 M157 82.5 C155.22 99.27, 149.5 111.08, 129.5 110 M129.5 110 C90.84 108.56, 50.38 111.24, 27.5 110 M129.5 110 C89.23 110.55, 50.58 110.7, 27.5 110 M27.5 110 C7.81 110.39, -0.15 100.21, 0 82.5 M27.5 110 C6.96 110.23, -0.75 98.81, 0 82.5 M0 82.5 C1.58 62.94, 2.23 43.12, 0 27.5 M0 82.5 C-0.69 68.4, 1.12 54.51, 0 27.5 M0 27.5 C1.79 7.99, 7.81 0.92, 27.5 0 M0 27.5 C-1.21 8.59, 11.41 -0.61, 27.5 0" stroke="#1e1e1e" stroke-width="2" fill="none"></path></g><g transform="translate(45 282) rotate(0 46.99166488647461 12.5)"><text x="0" y="17.52" font-family="Virgil, Segoe UI Emoji" font-size="20px" fill="#1e1e1e" text-anchor="start" style="white-space: pre;" direction="ltr" dominant-baseline="alphabetic">simulation</text></g><g stroke-linecap="round" transform="translate(368 242) rotate(0 78.5 55)"><path d="M3.59 11.07 C3.59 11.07, 3.59 11.07, 3.59 11.07 M3.59 11.07 C3.59 11.07, 3.59 11.07, 3.59 11.07 M3.06 23.86 C9.55 16.41, 15.23 12.34, 19.46 4.99 M3.06 23.86 C9.5 16.05, 16.72 9.88, 19.46 4.99 M3.2 35.9 C11.79 26.18, 17.46 17.79, 31.41 3.45 M3.2 35.9 C14.9 22.3, 25.17 9.22, 31.41 3.45 M3.33 47.94 C19.13 30.27, 32.05 14.03, 42.04 3.42 M3.33 47.94 C18.42 31.31, 33.29 13.8, 42.04 3.42 M3.46 59.98 C18.04 40.08, 32.86 22.51, 52.67 3.38 M3.46 59.98 C19.48 40.24, 36.5 20.48, 52.67 3.38 M3.59 72.03 C25.98 43.69, 51.95 17.03, 63.3 3.35 M3.59 72.03 C16.66 57.51, 28.32 43.85, 63.3 3.35 M3.07 84.82 C31.73 52.34, 60.82 19.69, 73.93 3.31 M3.07 84.82 C22.07 64.82, 40.78 42.66, 73.93 3.31 M5.83 93.84 C36.8 58.99, 65.64 24.63, 84.56 3.28 M5.83 93.84 C26.43 72.96, 44.18 50.93, 84.56 3.28 M7.93 103.62 C29.1 79.23, 52.12 54.83, 95.19 3.24 M7.93 103.62 C35.73 72.58, 63.05 40.21, 95.19 3.24 M14.62 108.11 C43.96 75.92, 70.03 45.27, 105.82 3.21 M14.62 108.11 C32.22 85.7, 51.36 63.09, 105.82 3.21 M20.66 113.36 C54.75 74.21, 90.31 33.43, 116.45 3.17 M20.66 113.36 C52.86 76.76, 86.63 38.93, 116.45 3.17 M31.29 113.33 C69.15 73.62, 104.63 30, 129.7 0.12 M31.29 113.33 C70.59 70.29, 108.17 25.01, 129.7 0.12 M41.92 113.29 C69.25 81.17, 98.61 46.87, 139.02 1.6 M41.92 113.29 C64.1 88.98, 84.45 63.94, 139.02 1.6 M52.55 113.26 C84.7 74.67, 122.04 32.76, 146.37 5.34 M52.55 113.26 C73.24 90.27, 91.9 67.08, 146.37 5.34 M63.18 113.22 C92.58 77.41, 120.33 45.89, 153.06 9.83 M63.18 113.22 C85.9 86.72, 108.66 60.07, 153.06 9.83 M73.81 113.19 C99.71 83.14, 125.2 55.88, 157.13 17.34 M73.81 113.19 C94.17 89.33, 113.52 67.2, 157.13 17.34 M84.44 113.16 C101.43 95.52, 116.72 73.97, 157.92 28.63 M84.44 113.16 C101.72 93.83, 118.38 74.58, 157.92 28.63 M95.07 113.12 C119.23 87.76, 139.96 61.5, 158.05 40.67 M95.07 113.12 C119.94 84.82, 144.51 55.69, 158.05 40.67 M105.7 113.09 C119.1 98.41, 133.14 80.86, 158.19 52.71 M105.7 113.09 C125.04 91.95, 143.49 70.05, 158.19 52.71 M116.33 113.05 C132.05 98.22, 145.07 79.83, 157.66 65.51 M116.33 113.05 C129.48 96.98, 143.62 81.75, 157.66 65.51 M129.59 110 C135.48 102.48, 144.34 92.95, 157.8 77.55 M129.59 110 C137.8 99.86, 145.65 90.32, 157.8 77.55 M141.53 108.45 C148.08 102.25, 151.4 97.59, 157.93 89.59 M141.53 108.45 C145.31 103.64, 149.78 97.98, 157.93 89.59" stroke="#a5d8ff" stroke-width="1" fill="none"></path><path d="M27.5 0 C65.58 1.04, 104.35 1.1, 129.5 0 M27.5 0 C62.83 0.66, 97.11 1.65, 129.5 0 M129.5 0 C149.79 -1.97, 158.68 9.89, 157 27.5 M129.5 0 C149.6 2.04, 155.12 7.52, 157 27.5 M157 27.5 C158.57 46.88, 159.08 65.21, 157 82.5 M157 27.5 C156.44 40.68, 157.49 54.51, 157 82.5 M157 82.5 C155.05 99.22, 146.12 109.04, 129.5 110 M157 82.5 C155.09 102.02, 146.78 110.59, 129.5 110 M129.5 110 C95.4 108.32, 66.68 111.05, 27.5 110 M129.5 110 C93.19 110.98, 56.9 109.79, 27.5 110 M27.5 110 C9.07 108.68, -0.76 101.52, 0 82.5 M27.5 110 C9.09 107.8, -0.02 99.36, 0 82.5 M0 82.5 C-0.54 66.61, 1.55 50.56, 0 27.5 M0 82.5 C-1.3 69.43, -0.46 58.18, 0 27.5 M0 27.5 C-1.16 8.02, 11.15 -0.21, 27.5 0 M0 27.5 C-2.05 7.9, 8.99 0.66, 27.5 0" stroke="#1e1e1e" stroke-width="2" fill="none"></path></g><g transform="translate(408 282) rotate(0 40.84166717529297 12.5)"><text x="0" y="17.52" font-family="Virgil, Segoe UI Emoji" font-size="20px" fill="#1e1e1e" text-anchor="start" style="white-space: pre;" direction="ltr" dominant-baseline="alphabetic">frontend</text></g><g stroke-linecap="round"><g transform="translate(188.5 157) rotate(0 -17.5 28)"><path d="M0.6 -1.02 C-5.21 8.05, -28.07 45.52, -33.89 55.1 M-0.54 1.05 C-6.5 10.2, -28.55 47.27, -34.25 56.17" stroke="#1e1e1e" stroke-width="2" fill="none"></path></g><g transform="translate(188.5 157) rotate(0 -17.5 28)"><path d="M-29.23 31.68 C-32.74 42.98, -34.45 51.67, -34.25 56.17 M-29.23 31.68 C-30.74 40.78, -32.88 49.17, -34.25 56.17" stroke="#1e1e1e" stroke-width="2" fill="none"></path></g><g transform="translate(188.5 157) rotate(0 -17.5 28)"><path d="M-14.66 40.63 C-23.81 48.56, -31.13 53.82, -34.25 56.17 M-14.66 40.63 C-21.17 46.57, -28.29 51.9, -34.25 56.17" stroke="#1e1e1e" stroke-width="2" fill="none"></path></g></g><mask></mask><g stroke-linecap="round"><g transform="translate(343.5 151) rotate(0 9.5 30.5)"><path d="M-0.82 -0.18 C2.6 9.98, 16.29 50.79, 19.77 60.8 M0.96 -1.32 C4.35 9.05, 16.07 51.92, 19.23 62.23" stroke="#1e1e1e" stroke-width="2" fill="none"></path></g><g transform="translate(343.5 151) rotate(0 9.5 30.5)"><path d="M4.51 42.02 C7.7 48.23, 11.17 53.62, 19.23 62.23 M4.51 42.02 C8.01 46.31, 10.88 50.6, 19.23 62.23" stroke="#1e1e1e" stroke-width="2" fill="none"></path></g><g transform="translate(343.5 151) rotate(0 9.5 30.5)"><path d="M20.94 37.29 C20.21 44.52, 19.75 51.03, 19.23 62.23 M20.94 37.29 C21.06 42.46, 20.59 47.71, 19.23 62.23" stroke="#1e1e1e" stroke-width="2" fill="none"></path></g></g><mask></mask></svg>